<svg xmlns="http://www.w3.org/2000/svg" width="38.764" height="38.764" viewBox="0 0 38.764 38.764">
  <path id="Path_15904" data-name="Path 15904" d="M204.286,2.264a11.387,11.387,0,1,0,8.1,3.346,11.4,11.4,0,0,0-8.1-3.346m-3.74,16.4h0a1.149,1.149,0,0,1-.434-.08.721.721,0,0,1-.373-.233,1.037,1.037,0,0,1-.334-.8.935.935,0,0,1,.334-.747l3.018-3.043-3.166-3.137a1.2,1.2,0,0,1-.319-.758,1.418,1.418,0,0,1,.319-.828,1.412,1.412,0,0,1,.847-.337,1.1,1.1,0,0,1,.759.337l3.148,3.137,3.158-3.16a1.053,1.053,0,0,1,.782-.314,1.113,1.113,0,0,1,1.141,1.118,1.111,1.111,0,0,1-.338.779l-3.171,3.163,3.047,3.043a1.116,1.116,0,0,1,.337.778,1.189,1.189,0,0,1-.337.807.753.753,0,0,1-.342.231,1.691,1.691,0,0,1-.464.074,1.2,1.2,0,0,1-.418-.074.515.515,0,0,1-.362-.231l-3.033-3.02-3.02,2.984a.487.487,0,0,1-.385.233.888.888,0,0,1-.394.08m3.74,8.747h0a13.746,13.746,0,0,1-13.706-13.7A13.746,13.746,0,0,1,204.286,0a13.563,13.563,0,0,1,9.676,4.023,13.647,13.647,0,0,1,0,19.363,13.527,13.527,0,0,1-9.676,4.023" transform="translate(-134.763 154.14) rotate(-45)" fill="#fff"/>
</svg>
