<svg width="16" height="20" viewBox="0 0 16 20" fill="none" xmlns="http://www.w3.org/2000/svg">
<path d="M0.00311111 11.1537C0.00311111 9.11866 -0.00388889 7.08466 0.00311111 5.05366C0.0171111 3.88266 0.489111 3.39166 1.65511 3.38266C4.46378 3.36333 7.27244 3.36333 10.0811 3.38266C11.2551 3.38966 11.7431 3.87467 11.7471 5.03667C11.7604 9.138 11.7604 13.238 11.7471 17.3367C11.7471 18.5137 11.2541 18.9887 10.0911 18.9937C7.28244 19.0043 4.47378 19.0043 1.66511 18.9937C0.492111 18.9887 0.0151111 18.5137 0.00811111 17.3537C-0.00388889 15.2867 0.00811111 13.2197 0.00811111 11.1537H0.00311111ZM10.7571 11.2677C10.7571 9.26766 10.7441 7.26066 10.7651 5.25666C10.7711 4.66766 10.6271 4.36366 9.95711 4.36966C7.24378 4.39433 4.53011 4.39433 1.81611 4.36966C1.19111 4.36966 0.965111 4.58967 0.968111 5.22067C0.986778 9.19533 0.986778 13.1703 0.968111 17.1457C0.968111 17.8217 1.20911 18.0457 1.87711 18.0457C4.52611 18.0197 7.17711 18.0137 9.82411 18.0457C10.5591 18.0557 10.7801 17.7827 10.7691 17.0827C10.7381 15.1447 10.7581 13.2047 10.7581 11.2657" fill="#171616"/>
<path d="M15.1213 7.79088C15.1213 9.89088 15.1333 11.9909 15.1153 14.0909C15.139 14.3013 15.1138 14.5143 15.0416 14.7134C14.9694 14.9124 14.8523 15.0921 14.6993 15.2384C14.5462 15.3848 14.3615 15.4938 14.1594 15.557C13.9574 15.6202 13.7434 15.6359 13.5343 15.6029C13.3083 15.5709 12.9273 15.4109 12.9053 15.1509C12.8853 14.9169 13.2253 14.6669 13.3893 14.6639C14.1563 14.6529 14.1613 14.1829 14.1603 13.6179C14.1493 9.73988 14.1333 5.86088 14.1713 1.98288C14.1793 1.14588 13.8643 0.948876 13.0933 0.959876C10.5413 0.995876 7.99328 0.981876 5.43628 0.966876C4.83628 0.966876 4.33628 0.961876 4.32628 1.77988C4.32628 1.92788 4.04128 2.24888 3.81028 2.21988C3.57928 2.19088 3.43728 1.85388 3.39728 1.64288C3.35654 1.45094 3.35858 1.25238 3.40325 1.06132C3.44792 0.870252 3.53413 0.691374 3.65574 0.537395C3.77736 0.383415 3.93141 0.258115 4.10692 0.170399C4.28244 0.0826831 4.47512 0.0347054 4.67128 0.029876C7.74028 -0.00612399 10.8103 -0.017124 13.8783 0.039876C14.7553 0.055876 15.1293 0.715876 15.1253 1.58588C15.1153 3.65388 15.1253 5.72288 15.1253 7.79088" fill="#171616"/>
</svg>
