<svg xmlns="http://www.w3.org/2000/svg" width="27.41" height="27.413" viewBox="0 0 27.41 27.413">
  <path id="Path_15895" data-name="Path 15895" d="M69.127,21.832a11.644,11.644,0,0,0,8.127,3.354,11.461,11.461,0,1,0,0-22.922A11.423,11.423,0,0,0,65.782,13.737a11.494,11.494,0,0,0,3.345,8.1m4.547-9.367h0a1.836,1.836,0,0,1,.524,1.191,1.864,1.864,0,0,1-.524,1.167,1.8,1.8,0,0,1-1.164.5,1.705,1.705,0,0,1-1.666-1.667,1.565,1.565,0,0,1,.5-1.191A1.476,1.476,0,0,1,72.51,12a1.649,1.649,0,0,1,1.164.466m-.883,1.191h0a.359.359,0,0,0-.075-.211.3.3,0,0,0-.206-.069.3.3,0,0,0-.235.069.3.3,0,0,0-.08.211c0,.081.022.161.08.185a.426.426,0,0,0,.235.08c.068,0,.1-.031.206-.08a.216.216,0,0,0,.075-.185m3.5-1.111h0a1.609,1.609,0,0,1,1.143-.465,1.589,1.589,0,0,1,1.194.465,1.761,1.761,0,0,1,.5,1.192,1.818,1.818,0,0,1-.5,1.168,1.714,1.714,0,0,1-1.194.5,1.646,1.646,0,0,1-1.143-.5,1.685,1.685,0,0,1-.488-1.168,1.642,1.642,0,0,1,.488-1.192m1.143.879h0a.168.168,0,0,0-.184.113.279.279,0,0,0-.07.2.22.22,0,0,0,.07.184.18.18,0,0,0,.184.1.3.3,0,0,0,.235-.1.34.34,0,0,0,.074-.184.47.47,0,0,0-.074-.2.261.261,0,0,0-.235-.113m6.124-.879h0a1.591,1.591,0,0,1,.524,1.192,1.633,1.633,0,0,1-.524,1.168,1.65,1.65,0,0,1-1.166.5,1.7,1.7,0,0,1-1.667-1.665,1.759,1.759,0,0,1,.5-1.192A1.656,1.656,0,0,1,82.4,12.08a1.529,1.529,0,0,1,1.166.465m-.853,1.192h0a.245.245,0,0,0-.08-.2.285.285,0,0,0-.233-.113c-.081,0-.1.021-.208.113a.282.282,0,0,0-.082.2.222.222,0,0,0,.082.184c.1.073.127.1.208.1a.329.329,0,0,0,.233-.1.2.2,0,0,0,.08-.184M67.521,4h0a13.783,13.783,0,0,1,9.733-4A13.59,13.59,0,0,1,86.91,4a13.81,13.81,0,0,1,4.026,9.734,13.485,13.485,0,0,1-4.026,9.654,13.483,13.483,0,0,1-9.656,4.022A13.686,13.686,0,0,1,63.526,13.737a13.906,13.906,0,0,1,4-9.734" transform="translate(-63.526)" fill="#fff"/>
</svg>
