<svg xmlns="http://www.w3.org/2000/svg" width="9.29" height="17.085" viewBox="0 0 9.29 17.085">
  <g id="Layer_2" data-name="Layer 2" transform="translate(9.292 17.114) rotate(180)">
    <g id="Layer_1" data-name="Layer 1" transform="translate(0.001 0.029)">
      <path id="Path_1345" data-name="Path 1345" d="M8.358,13.6,4.312,8.581l.176-.212L6,6.558,8.733,3.28a2.188,2.188,0,0,0,.551-1.593A1.806,1.806,0,0,0,8.608.462,1.869,1.869,0,0,0,5.875.85C4.253,2.792,2.53,4.859.609,7.172a1.91,1.91,0,0,0-.03,2.765c.7.872,1.416,1.758,2.107,2.615l.939,1.164.629.782c.466.575.942,1.174,1.42,1.757a2.11,2.11,0,0,0,1.618.858,1.833,1.833,0,0,0,1.156-.429,1.88,1.88,0,0,0,.176-2.746C8.535,13.822,8.445,13.711,8.358,13.6Z" transform="translate(-0.001 -0.029)" fill="#fb8809"/>
    </g>
  </g>
</svg>
