<svg xmlns="http://www.w3.org/2000/svg" width="27.41" height="27.409" viewBox="0 0 27.41 27.409">
  <path id="Path_15896" data-name="Path 15896" d="M13.708,2.264a11.452,11.452,0,0,0-8.1,19.541,11.33,11.33,0,0,0,8.1,3.322,11.432,11.432,0,1,0,0-22.863M11.657,18.142h0a1.463,1.463,0,0,1-.41-.07,1.752,1.752,0,0,1-.338-.257L8.333,15.242a.961.961,0,0,1-.313-.8,1.023,1.023,0,0,1,.313-.781,1.043,1.043,0,0,1,.83-.3,1.03,1.03,0,0,1,.78.3l1.714,1.771L17.5,9.611A1.07,1.07,0,0,1,18.3,9.3a1.1,1.1,0,0,1,.778.314,1.011,1.011,0,0,1,.313.8.906.906,0,0,1-.313.756l-6.595,6.645a2.829,2.829,0,0,0-.361.257,1.6,1.6,0,0,1-.468.07m2.051,9.271h0a13.626,13.626,0,0,1-9.68-4.023,13.649,13.649,0,0,1,0-19.363A13.7,13.7,0,0,1,27.41,13.713a13.737,13.737,0,0,1-13.7,13.7" transform="translate(0 -0.004)" fill="#fff"/>
</svg>
