<svg id="Layer_2" data-name="Layer 2" xmlns="http://www.w3.org/2000/svg" width="28.116" height="27.034" viewBox="0 0 28.116 27.034">
  <g id="Layer_1" data-name="Layer 1" transform="translate(0)">
    <path id="Path_7874" data-name="Path 7874" d="M14.753,21.4c-1.356,0-2.722.062-4.078,0a2.168,2.168,0,0,1-2.116-1.986q-.087-2.648,0-5.34a2.229,2.229,0,0,1,2.106-2.012c.356,0,.4-.168.4-.45a18.3,18.3,0,0,1,.048-2.057,3.572,3.572,0,0,1,3.636-2.942,3.572,3.572,0,0,1,3.636,2.942c.067.7.048,1.4.048,2.1,0,.256.067.353.375.4a2.246,2.246,0,0,1,2.155,2.065c.067,1.659.1,3.336,0,5a2.216,2.216,0,0,1-.8,1.742,2.654,2.654,0,0,1-1.951.606H14.753Zm0-.944H18.2c1.164,0,1.731-.5,1.741-1.571V14.546a1.29,1.29,0,0,0-.4-1.137A1.56,1.56,0,0,0,18.311,13H11.194a1.559,1.559,0,0,0-1.2.407,1.292,1.292,0,0,0-.408,1.111v4.413a1.329,1.329,0,0,0,.447,1.161,1.607,1.607,0,0,0,1.275.384c1.125-.009,2.27-.018,3.443-.018Zm2.587-8.491a19.91,19.91,0,0,0,0-2.277,2.492,2.492,0,0,0-2.559-2.153,2.492,2.492,0,0,0-2.559,2.153,19.952,19.952,0,0,0,0,2.277Z" transform="translate(-0.696 -0.497)" fill="#171616"/>
    <path id="Path_7875" data-name="Path 7875" d="M14.87,16.17a1.13,1.13,0,0,1,1.106.657.957.957,0,0,1-.308,1.156.783.783,0,0,0-.375.851.828.828,0,0,1,0,.435,2.05,2.05,0,0,1-.337.444,4.491,4.491,0,0,1-.337-.407.392.392,0,0,1,0-.213,1.214,1.214,0,0,0-.452-1.175.9.9,0,0,1-.192-1.128.96.96,0,0,1,.895-.62Z" transform="translate(-0.898 -1.654)" fill="#171616"/>
    <path id="Path_7876" data-name="Path 7876" d="M28.116,13.517A13.8,13.8,0,0,1,14.058,27.034,13.8,13.8,0,0,1,0,13.517,13.8,13.8,0,0,1,14.058,0,13.8,13.8,0,0,1,28.116,13.517Zm-27.272,0A12.976,12.976,0,0,0,14.064,26.241,12.977,12.977,0,0,0,27.291,13.52,12.976,12.976,0,0,0,14.061.811,12.968,12.968,0,0,0,.843,13.52Z" fill="#171616"/>
  </g>
</svg>
