<svg xmlns="http://www.w3.org/2000/svg" width="28.12" height="27.005" viewBox="0 0 28.12 27.005">
  <g id="Layer_2" data-name="Layer 2" transform="translate(0 -63.032)">
    <g id="Layer_1" data-name="Layer 1" transform="translate(0 63.034)">
      <path id="Path_15865" data-name="Path 15865" d="M6.87,9.26v-1c0-.29.13-.42.43-.42h5a2.42,2.42,0,0,1,1.72.66,3.2,3.2,0,0,1,2.35-.68h4.36c.36,0,.5.14.48.48s0,.59,0,.91h.4c.69,0,.69,0,.69.71v8.72c0,.33-.13.46-.46.46H6.23c-.36,0-.48-.14-.48-.49V9.67c0-.45,0-.49.49-.5Zm13.72,8.33V8.47H15.81a2.33,2.33,0,0,0-.89.22.82.82,0,0,0-.57.85v8.45a3.57,3.57,0,0,1,1.87-.41C17.68,17.6,19.12,17.59,20.59,17.59ZM13.76,18V9.37a.76.76,0,0,0-.31-.54,1.62,1.62,0,0,0-.81-.31c-1.06-.06-2.13-.06-3.2-.08H7.52v9.13H11.7a3.73,3.73,0,0,1,2.06.43Zm7.49-8.14v7.73c0,.56-.05.6-.59.6H15.89a7.23,7.23,0,0,0-1.11.21v.11h6.9V9.88Zm-14.84,0v8.67h6.9v-.12a7.35,7.35,0,0,0-1.12-.21H7.42c-.51,0-.57-.06-.57-.57V9.88Z" fill="#171616"/>
      <path id="Path_15866" data-name="Path 15866" d="M17.48,12.78h1.6c.23,0,.44.05.43.34s-.22.3-.43.3H15.93c-.22,0-.45,0-.45-.32s.22-.32.45-.32Z" fill="#171616"/>
      <path id="Path_15867" data-name="Path 15867" d="M17.5,15.39H15.86c-.21,0-.38-.05-.38-.3s.15-.3.37-.3h3.28c.21,0,.37.05.38.29s-.16.31-.37.31Z" fill="#171616"/>
      <path id="Path_15868" data-name="Path 15868" d="M17.52,10.82h1.6c.2,0,.38,0,.39.29s-.17.33-.4.32H15.87c-.23,0-.4-.07-.39-.33s.2-.28.4-.28Z" fill="#171616"/>
      <path id="Path_15869" data-name="Path 15869" d="M10.67,12.78h1.52c.22,0,.44,0,.45.32s-.23.32-.45.32H9c-.2,0-.42,0-.42-.3s.19-.34.42-.34Z" fill="#171616"/>
      <path id="Path_15870" data-name="Path 15870" d="M10.63,15.39H9c-.22,0-.42,0-.42-.29s.18-.32.4-.32h3.2c.22,0,.42,0,.43.3s-.19.31-.41.31Z" fill="#171616"/>
      <path id="Path_15871" data-name="Path 15871" d="M10.6,10.82h1.63c.22,0,.45,0,.39.31a.48.48,0,0,1-.37.29H9.01c-.23,0-.4-.07-.4-.33s.18-.29.38-.29Z" fill="#171616"/>
      <g id="Layer_1-2" data-name="Layer 1">
        <path id="Path_15862" data-name="Path 15862" d="M28.12,13.52A13.81,13.81,0,0,1,14.06,27,13.81,13.81,0,0,1,0,13.52,13.81,13.81,0,0,1,14.06,0,13.81,13.81,0,0,1,28.12,13.52Zm-27.28,0A13,13,0,0,0,14.06,26.24,13,13,0,0,0,27.29,13.52,13,13,0,0,0,14.06.81,13,13,0,0,0,.84,13.52Z" fill="#171616"/>
      </g>
    </g>
  </g>
</svg>
