<svg xmlns="http://www.w3.org/2000/svg" width="28.116" height="27.034" viewBox="0 0 28.116 27.034">
  <g id="Layer_2" data-name="Layer 2" transform="translate(0 0)">
    <g id="Layer_1" data-name="Layer 1" transform="translate(0 0)">
      <line id="Line_3" data-name="Line 3" x2="11.209" transform="translate(5.179 12.665)" fill="none" stroke="#171616" stroke-miterlimit="10" stroke-width="0.75"/>
      <line id="Line_4" data-name="Line 4" x2="6.85" transform="translate(5.179 14.94)" fill="none" stroke="#171616" stroke-miterlimit="10" stroke-width="0.75"/>
      <path id="Path_15850" data-name="Path 15850" d="M28.116,13.517A13.8,13.8,0,0,1,14.058,27.034,13.8,13.8,0,0,1,0,13.517,13.8,13.8,0,0,1,14.058,0,13.8,13.8,0,0,1,28.116,13.517Zm-27.272,0A12.976,12.976,0,0,0,14.064,26.241,12.977,12.977,0,0,0,27.291,13.52,12.976,12.976,0,0,0,14.061.811,12.968,12.968,0,0,0,.843,13.52Z" transform="translate(0)" fill="#171616"/>
      <line id="Line_5" data-name="Line 5" x2="14.323" transform="translate(5.179 10.389)" fill="none" stroke="#171616" stroke-miterlimit="10" stroke-width="0.75"/>
    </g>
  </g>
</svg>
