<svg width="29" height="28" viewBox="0 0 29 28" fill="none" xmlns="http://www.w3.org/2000/svg">
<path d="M28.116 13.5219C28.0417 17.1777 26.5194 20.6546 23.8836 23.189C21.2478 25.7234 17.7139 27.108 14.058 27.0389C10.4021 27.108 6.86817 25.7234 4.23236 23.189C1.59655 20.6546 0.074333 17.1777 0 13.5219C0.074333 9.86609 1.59655 6.38921 4.23236 3.85484C6.86817 1.32046 10.4021 -0.0642077 14.058 0.00491006C17.7139 -0.0642077 21.2478 1.32046 23.8836 3.85484C26.5194 6.38921 28.0417 9.86609 28.116 13.5219ZM0.844 13.5219C0.910203 16.9622 2.34011 20.2353 4.81924 22.6214C7.29838 25.0075 10.6237 26.3112 14.064 26.2459C17.5049 26.3129 20.8314 25.0103 23.312 22.6247C25.7925 20.239 27.2238 16.9658 27.291 13.5249C27.2209 10.0855 25.7879 6.81473 23.307 4.43155C20.8261 2.04837 17.5004 0.747857 14.061 0.81591C10.623 0.748946 7.29919 2.05018 4.82045 4.43347C2.34172 6.81676 0.911025 10.087 0.843 13.5249L0.844 13.5219Z" fill="#171616"/>
<g clip-path="url(#clip0_4_3294)">
<path d="M13.9565 21C12.0848 21 10.2134 21 8.34227 21C6.8446 21 6.00187 20.1732 6.00098 18.7169C6.00098 16.1194 6.00098 13.5219 6.00098 10.9244C6.00098 9.46984 6.85448 8.63512 8.33688 8.63512C8.53093 8.63512 8.74836 8.58229 8.91367 8.65097C9.07898 8.71965 9.20655 8.91072 9.3494 9.0472C9.20116 9.17751 9.07179 9.36242 8.90019 9.42405C8.72859 9.48569 8.48602 9.43814 8.27669 9.4399C7.35041 9.44694 6.8392 9.94267 6.83022 10.8602C6.82303 12.7242 6.83022 14.5873 6.83022 16.4513C6.83022 17.2288 6.82303 18.0063 6.83022 18.7847C6.841 19.7171 7.32615 20.1794 8.28117 20.1794C12.0995 20.1794 15.9175 20.1794 19.7352 20.1794C20.6839 20.1794 21.1726 19.7022 21.1726 18.775C21.1726 16.1335 21.1726 13.492 21.1726 10.8505C21.1726 9.94267 20.6561 9.44782 19.7199 9.44166C19.48 9.44166 19.2267 9.4848 19.0065 9.41965C18.9253 9.38626 18.8531 9.33459 18.796 9.26881C18.7389 9.20304 18.6984 9.125 18.6777 9.04103C18.6633 8.92393 18.8278 8.70644 18.9571 8.66418C19.8601 8.36657 21.1511 8.78481 21.6281 9.55965C21.835 9.87952 21.9547 10.246 21.9758 10.6242C22.0034 13.4265 22.0067 16.2292 21.9857 19.0321C21.9785 20.1609 21.0558 20.9939 19.8394 21.0009C17.8799 21.0079 15.9187 21 13.9565 21Z" fill="black"/>
<path d="M13.6042 16.2836V7.72512C13.6042 7.59304 13.5664 7.43895 13.6221 7.33417C13.6958 7.19594 13.836 7.01455 13.9617 7.00311C14.0875 6.99166 14.2897 7.1299 14.3696 7.25581C14.4496 7.38172 14.4226 7.56663 14.4226 7.72688C14.4226 10.3977 14.4226 13.0686 14.4226 15.7395V16.2995C14.6643 16.0679 14.8278 15.9129 14.9895 15.7562C15.3938 15.3626 15.7927 14.9637 16.2006 14.5763C16.3992 14.387 16.6651 14.3315 16.8178 14.5666C16.9077 14.6987 16.8816 15.021 16.7738 15.1328C15.9823 15.9534 15.1566 16.7432 14.34 17.541C14.1226 17.7541 13.8908 17.7655 13.6724 17.548C12.8561 16.7503 12.0406 15.9511 11.226 15.1504C11.0293 14.9567 10.9808 14.6925 11.218 14.5446C11.3545 14.4566 11.6807 14.4803 11.8019 14.5851C12.3275 15.0412 12.8091 15.5466 13.3077 16.0327C13.3796 16.0996 13.4586 16.1595 13.6042 16.2836Z" fill="black"/>
</g>
<defs>
<clipPath id="clip0_4_3294">
<rect width="16" height="14" fill="white" transform="translate(6 7.00244)"/>
</clipPath>
</defs>
</svg>
