<svg id="Group_108" data-name="Group 108" xmlns="http://www.w3.org/2000/svg" xmlns:xlink="http://www.w3.org/1999/xlink" width="44.192" height="44.191" viewBox="0 0 44.192 44.191">
  <defs>
    <clipPath id="clip-path">
      <rect id="Rectangle_326" data-name="Rectangle 326" width="44.192" height="44.191" fill="#fb8809"/>
    </clipPath>
  </defs>
  <g id="Group_106" data-name="Group 106" clip-path="url(#clip-path)">
    <path id="Path_15902" data-name="Path 15902" d="M22.113,0A22.1,22.1,0,1,1,0,22.176,22.085,22.085,0,0,1,22.113,0m13.73,36.54a19.971,19.971,0,1,0-32.989-19.9c-2.168,7.61.662,15.676,5.269,19.744,1.805-5.884,2.285-6.421,8.218-9.193-3.894-4.751-4.236-9.783-.893-13.146,3.132-3.151,8.912-3.382,12.6-.484a7.468,7.468,0,0,1,2.723,4.969,9.012,9.012,0,0,1-3.23,8.677c4.509,1.651,7.7,4.287,8.307,9.33" transform="translate(0 0)" fill="#fb8809"/>
  </g>
</svg>
