<svg width="24" height="24" viewBox="0 0 24 24" fill="none" xmlns="http://www.w3.org/2000/svg">
<path fill-rule="evenodd" clip-rule="evenodd" d="M12 24C18.6274 24 24 18.6274 24 12C24 5.37258 18.6274 0 12 0C5.37258 0 0 5.37258 0 12C0 18.6274 5.37258 24 12 24ZM6.43934 6.43934C7.02513 5.85355 7.97487 5.85355 8.56066 6.43934L12 9.87868L15.4393 6.43934C16.0251 5.85355 16.9749 5.85355 17.5607 6.43934C18.1464 7.02513 18.1464 7.97487 17.5607 8.56066L14.1213 12L17.5607 15.4393C18.1464 16.0251 18.1464 16.9749 17.5607 17.5607C16.9749 18.1464 16.0251 18.1464 15.4393 17.5607L12 14.1213L8.56066 17.5607C7.97487 18.1464 7.02513 18.1464 6.43934 17.5607C5.85355 16.9749 5.85355 16.0251 6.43934 15.4393L9.87868 12L6.43934 8.56066C5.85355 7.97487 5.85355 7.02513 6.43934 6.43934Z" fill="#FB8809"/>
</svg>
