<svg width="27" height="25" viewBox="0 0 27 25" fill="none" xmlns="http://www.w3.org/2000/svg">
<path d="M18.976 12.0332C19.9146 12.4716 20.8 13.0158 21.615 13.6552C23.5572 15.132 25.0779 17.0927 26.025 19.3412C26.4695 20.3738 26.6852 21.4904 26.657 22.6142C26.657 22.7462 26.633 22.8282 26.49 22.8872C24.6521 23.6911 22.6593 24.079 20.654 24.0232C19.98 23.9932 19.312 23.8702 18.641 23.7882C18.6066 23.7803 18.5731 23.7689 18.541 23.7542C19.041 23.4042 19.559 23.0872 20.022 22.7082C20.283 22.4893 20.6194 22.3816 20.959 22.4082C22.2916 22.4239 23.6163 22.2035 24.872 21.7572C24.9127 21.7388 24.9521 21.7178 24.99 21.6942C24.8966 20.9845 24.6918 20.294 24.383 19.6482C23.2358 17.1694 21.3158 15.1294 18.911 13.8342C18.717 13.7252 18.611 13.6342 18.704 13.3932C18.7706 13.178 18.8208 12.958 18.854 12.7352C18.893 12.5092 18.929 12.2892 18.976 12.0332Z" fill="#FB8809"/>
<path d="M8.46393 21.6108C7.97193 21.7108 7.47393 21.7938 6.98693 21.9168C6.80056 21.9707 6.60233 21.9679 6.41759 21.9086C6.23286 21.8492 6.07003 21.7362 5.94993 21.5838C4.35859 20.0117 3.33702 17.9538 3.04693 15.7358C2.74621 13.833 2.99047 11.8839 3.75145 10.1142C4.51243 8.34449 5.75902 6.82644 7.34693 5.73577C7.72893 5.45077 8.15293 5.22177 8.55693 4.96777L8.59193 5.01577C8.43793 5.43577 8.27193 5.85277 8.13293 6.27877C8.06279 6.65838 7.9525 7.02947 7.80393 7.38577C7.56799 7.6815 7.29965 7.94983 7.00393 8.18577C6.12961 9.09597 5.46244 10.1845 5.04816 11.3766C4.63388 12.5688 4.48228 13.8365 4.60376 15.0927C4.72525 16.349 5.11693 17.5641 5.75198 18.6548C6.38702 19.7455 7.2504 20.686 8.28293 21.4118C8.34593 21.4568 8.40693 21.5048 8.46993 21.5498L8.46393 21.6108Z" fill="#FB8809"/>
<path d="M2.62795 16.0293C2.80295 16.6513 2.97995 17.2533 3.13595 17.8603C3.15133 17.9743 3.12505 18.0901 3.06195 18.1863C2.44022 19.1216 1.99488 20.1627 1.74795 21.2583C1.63695 21.8113 1.56595 21.6853 2.08095 21.8463C3.66507 22.3971 5.35798 22.5609 7.0183 22.3239C8.67861 22.087 10.2581 21.4562 11.625 20.4843C11.718 20.4203 11.788 20.3723 11.891 20.4843C12.061 20.6673 12.246 20.8353 12.43 21.0053C12.614 21.1753 12.79 21.3273 12.999 21.5123C12.834 21.6313 12.682 21.7443 12.526 21.8513C10.3875 23.3466 7.82305 24.1106 5.21495 24.0293C3.56798 23.9705 1.94506 23.6155 0.423953 22.9813C0.00195312 22.8133 0.00195312 22.8123 0.00195312 22.3543C0.0299854 20.8384 0.459592 19.357 1.24695 18.0613C1.61795 17.4043 2.07695 16.7963 2.49895 16.1673C2.53888 16.1179 2.58268 16.0717 2.62995 16.0293H2.62795Z" fill="#FB8809"/>
<path d="M10.9463 5.78375C11.2644 5.1312 11.668 4.52387 12.1463 3.97775C12.218 3.91609 12.3087 3.88081 12.4033 3.87775C14.1383 3.70017 15.8894 3.983 17.4803 4.69775C19.0556 5.36642 20.4373 6.42071 21.4982 7.76352C22.5592 9.10632 23.2652 10.6945 23.5513 12.3817C23.6561 13.1394 23.7132 13.9029 23.7223 14.6677C23.7203 14.7716 23.711 14.8752 23.6943 14.9777C23.3678 14.6369 23.0233 14.3138 22.6623 14.0097C22.4662 13.865 22.3026 13.6807 22.182 13.4689C22.0614 13.257 21.9866 13.0223 21.9623 12.7797C21.6519 10.6961 20.5648 8.80702 18.9193 7.49175C17.8712 6.60192 16.625 5.97636 15.2852 5.66752C13.9455 5.35868 12.5512 5.37556 11.2193 5.71675L10.9463 5.78375Z" fill="#FB8809"/>
<path d="M7.98932 11.4233C7.97832 10.7803 7.94032 10.1693 7.96332 9.56132C8.01861 7.54355 8.61582 5.57783 9.69231 3.87032C10.5995 2.46287 11.8036 1.27099 13.2203 0.378317C13.2517 0.361571 13.2864 0.35215 13.3219 0.350765C13.3574 0.349379 13.3928 0.356064 13.4253 0.370317C14.8802 1.28233 16.1085 2.51339 17.0173 3.97032C17.0343 3.99732 17.0453 4.02632 17.0773 4.08932C16.8523 4.02032 16.6623 3.94732 16.4653 3.90132C15.9173 3.77332 15.3653 3.66032 14.8173 3.53032C14.7058 3.50155 14.6029 3.44632 14.5173 3.36932C14.1303 3.01832 13.7523 2.65632 13.3533 2.28132C13.1813 2.41932 13.0293 2.53732 12.8863 2.66332C11.7696 3.61892 10.8902 4.82096 10.3175 6.17458C9.7448 7.52821 9.4945 8.9964 9.58632 10.4633C9.60032 10.8783 9.60631 10.8783 9.21831 11.0023C8.83031 11.1263 8.43432 11.2683 7.98932 11.4233Z" fill="#FB8809"/>
<path d="M21.811 16.5176C22.218 17.0326 22.59 17.4956 22.949 17.9696C22.965 18.008 22.9726 18.0493 22.9714 18.0908C22.9702 18.1324 22.9602 18.1732 22.942 18.2106C21.9102 20.6969 19.9562 22.6875 17.4894 23.7653C15.0226 24.8431 12.2345 24.9246 9.70901 23.9926C9.63368 23.9646 9.55902 23.9349 9.48502 23.9036C9.4603 23.8894 9.43717 23.8727 9.41602 23.8536C9.48502 23.8236 9.54601 23.8006 9.60301 23.7766C10.23 23.4996 10.855 23.2236 11.484 22.9566C11.5975 22.9018 11.7234 22.878 11.849 22.8876C13.9707 23.2463 16.1502 22.8145 17.9748 21.6739C19.7994 20.5332 21.1423 18.763 21.749 16.6986C21.756 16.6646 21.768 16.6356 21.811 16.5176Z" fill="#FB8809"/>
<path d="M14.8229 19.8364C14.5949 19.6464 14.3799 19.4764 14.1759 19.2954C13.9719 19.1144 13.8029 18.9444 13.6299 18.7784C16.6239 15.1584 17.8819 11.1594 16.5189 6.52344C16.5695 6.5323 16.6189 6.54741 16.6659 6.56844C17.2099 6.88044 17.7569 7.18744 18.2899 7.51844C18.4015 7.60308 18.4771 7.72659 18.5019 7.86444C19.0594 11.2489 18.3472 14.72 16.5019 17.6114C16.0202 18.4088 15.4575 19.1544 14.8229 19.8364Z" fill="#FB8809"/>
<path d="M5.03754 15.6891C5.01554 15.0561 4.98954 14.4231 4.97754 13.7891C4.99485 13.7125 5.04152 13.6457 5.10754 13.6031C6.93407 12.1797 9.09724 11.2521 11.3875 10.9101C13.0338 10.666 14.7113 10.7338 16.3325 11.1101C16.4175 11.1291 16.5015 11.1561 16.6265 11.1901C16.5385 11.7161 16.4515 12.2341 16.3605 12.7771C14.3959 12.2646 12.3327 12.2633 10.3674 12.7734C8.40212 13.2834 6.60001 14.2879 5.13254 15.6911L5.03754 15.6891Z" fill="#FB8809"/>
<path d="M8.50684 13.8682L10.0068 13.2832C10.4996 15.1189 11.3945 16.8221 12.6266 18.2693C13.8587 19.7166 15.3973 20.8718 17.1308 21.6512C17.0928 21.6877 17.0501 21.719 17.0038 21.7442C16.4148 21.9582 15.8278 22.1782 15.2308 22.3712C15.0996 22.3934 14.9649 22.366 14.8528 22.2942C11.8292 20.4057 9.59133 17.4865 8.55283 14.0762C8.53396 14.0077 8.51861 13.9383 8.50684 13.8682Z" fill="#FB8809"/>
</svg>
