<svg width="15" height="16" viewBox="0 0 15 16" fill="none" xmlns="http://www.w3.org/2000/svg">
<path d="M13.5857 15.0081H12.6507C12.1764 14.8184 11.7541 14.5184 11.4187 14.1331C10.8797 13.5691 10.3187 13.0331 9.76872 12.4761C9.65972 12.3661 9.57572 12.3051 9.40072 12.3911C8.26478 12.9425 6.99497 13.158 5.74072 13.0121C4.87616 12.9069 4.04139 12.6297 3.28555 12.197C2.52971 11.7642 1.86808 11.1847 1.33959 10.4924C0.811098 9.80011 0.426435 9.0091 0.208241 8.16593C-0.00995307 7.32276 -0.0572702 6.44445 0.0690749 5.58272C0.19542 4.72098 0.492874 3.89323 0.943929 3.14818C1.39498 2.40313 1.99053 1.75584 2.6955 1.24441C3.40047 0.732975 4.20063 0.367736 5.04888 0.17019C5.89713 -0.0273564 6.77633 -0.0532191 7.63472 0.0941244C8.4775 0.239764 9.28319 0.550523 10.0055 1.00854C10.7278 1.46656 11.3524 2.0628 11.8436 2.76301C12.3347 3.46322 12.6826 4.25358 12.8673 5.08867C13.0519 5.92376 13.0698 6.78712 12.9197 7.62912C12.7557 8.28866 12.5554 8.93865 12.3197 9.57612C12.9067 10.1861 13.4967 10.8231 14.1137 11.4331C14.4957 11.7721 14.7941 12.1948 14.9857 12.6681V13.6081C14.8742 13.9326 14.6902 14.2274 14.4476 14.47C14.205 14.7126 13.9102 14.8966 13.5857 15.0081ZM11.1417 6.52712C11.1466 5.31167 10.6714 4.14344 9.81958 3.27642C8.96774 2.40941 7.80807 1.91372 6.59272 1.89712C5.97713 1.88454 5.36516 1.99426 4.79228 2.21992C4.21941 2.44558 3.69701 2.7827 3.25538 3.21174C2.81375 3.64077 2.46166 4.15319 2.21952 4.7193C1.97738 5.28541 1.85001 5.89395 1.84478 6.50965C1.83955 7.12535 1.95657 7.73596 2.18907 8.3061C2.42156 8.87624 2.7649 9.39457 3.19918 9.83104C3.63347 10.2675 4.15006 10.6135 4.71902 10.8488C5.28799 11.0842 5.898 11.2043 6.51372 11.2021C7.12724 11.2085 7.7358 11.0917 8.30329 10.8584C8.87077 10.6251 9.38562 10.2803 9.81727 9.84422C10.2489 9.40819 10.5886 8.88989 10.8161 8.32007C11.0436 7.75026 11.1543 7.14055 11.1417 6.52712Z" fill="#F3EDE6"/>
</svg>
