<svg width="51" height="51" viewBox="0 0 51 51" fill="none" xmlns="http://www.w3.org/2000/svg">
<g clip-path="url(#clip0_4_3475)">
<path d="M20.1085 31.5612C23.5009 28.2162 26.8323 24.9436 30.1592 21.6733C31.6896 20.1655 33.22 18.6577 34.7503 17.15C35.3157 16.5914 35.9399 16.2227 36.6049 16.8967C37.2698 17.5706 37.0029 18.2401 36.3787 18.8485C31.2991 23.8331 26.2232 28.8216 21.1511 33.8138C20.2894 34.6619 19.8099 34.6551 18.9663 33.7844C17.4714 32.2419 16.0059 30.6746 14.5222 29.1254C13.9455 28.5215 13.7623 27.843 14.4023 27.2437C15.0424 26.6444 15.7051 26.918 16.2659 27.5151C17.5076 28.8427 18.7583 30.1454 20.1085 31.5612Z" fill="black"/>
<path d="M25.5 51C18.7394 50.9922 12.2579 48.3031 7.47737 43.5226C2.69688 38.7421 0.00778151 32.2606 0 25.5C0.00778151 18.7394 2.69688 12.2579 7.47737 7.47737C12.2579 2.69688 18.7394 0.00778151 25.5 0C32.2606 0.00778151 38.7421 2.69688 43.5226 7.47737C48.3031 12.2579 50.9922 18.7394 51 25.5C50.9922 32.2606 48.3031 38.7421 43.5226 43.5226C38.7421 48.3031 32.2606 50.9922 25.5 51ZM25.5 1.58315C19.1591 1.59033 13.0799 4.11244 8.59617 8.59617C4.11244 13.0799 1.59033 19.1591 1.58315 25.5C1.59033 31.8409 4.11244 37.9201 8.59617 42.4038C13.0799 46.8876 19.1591 49.4097 25.5 49.4169C31.8409 49.4097 37.9201 46.8876 42.4038 42.4038C46.8876 37.9201 49.4097 31.8409 49.4169 25.5C49.4097 19.1591 46.8876 13.0799 42.4038 8.59617C37.9201 4.11244 31.8409 1.59033 25.5 1.58315Z" fill="black"/>
</g>
<defs>
<clipPath id="clip0_4_3475">
<rect width="51" height="51" fill="white"/>
</clipPath>
</defs>
</svg>
