<svg xmlns="http://www.w3.org/2000/svg" width="22.074" height="22.072" viewBox="0 0 22.074 22.072">
  <path id="Path_15912" data-name="Path 15912" d="M201.617,1.824a9.17,9.17,0,1,0,6.524,2.694,9.183,9.183,0,0,0-6.524-2.694m-3.012,13.208h0a.925.925,0,0,1-.35-.064.581.581,0,0,1-.3-.188.835.835,0,0,1-.269-.646.753.753,0,0,1,.269-.6l2.43-2.45-2.55-2.526a.969.969,0,0,1-.257-.61,1.142,1.142,0,0,1,.257-.667,1.137,1.137,0,0,1,.682-.271.888.888,0,0,1,.611.271l2.535,2.526,2.543-2.545a.848.848,0,0,1,.63-.253.9.9,0,0,1,.919.9.9.9,0,0,1-.272.627l-2.554,2.547,2.454,2.45a.9.9,0,0,1,.271.627.957.957,0,0,1-.271.65.606.606,0,0,1-.275.186,1.362,1.362,0,0,1-.374.06A.964.964,0,0,1,204.4,15a.415.415,0,0,1-.292-.186l-2.442-2.432-2.432,2.4a.392.392,0,0,1-.31.188.716.716,0,0,1-.317.064m3.012,7.044h0A11.069,11.069,0,0,1,190.58,11.044,11.069,11.069,0,0,1,201.617,0a10.922,10.922,0,0,1,7.792,3.24,10.989,10.989,0,0,1,0,15.593,10.893,10.893,0,0,1-7.792,3.24" transform="translate(-190.58 -0.004)" fill="white"/>
</svg>
