<svg width="108" height="108" viewBox="0 0 108 108" fill="none" xmlns="http://www.w3.org/2000/svg">
<path d="M39.0733 13.5H68.9267C70.1201 13.5 71.2647 13.9741 72.1086 14.818L93.182 35.8913C94.0259 36.7353 94.5 37.8798 94.5 39.0733V68.9267C94.5 70.1201 94.0259 71.2647 93.182 72.1086L72.1087 93.182C71.2647 94.0259 70.1201 94.5 68.9267 94.5H39.0733C37.8798 94.5 36.7353 94.0259 35.8913 93.182L14.818 72.1086C13.9741 71.2647 13.5 70.1201 13.5 68.9266V39.0733C13.5 37.8799 13.9741 36.7353 14.818 35.8914L35.8914 14.818C36.7353 13.9741 37.8799 13.5 39.0733 13.5Z" stroke="#171616" stroke-width="2" stroke-miterlimit="10" stroke-linecap="round" stroke-linejoin="round"/>
<path d="M53.7759 69.5249H54.2259V69.9749H53.7759V69.5249Z" stroke="#171616" stroke-width="2" stroke-linecap="round" stroke-linejoin="round"/>
<path d="M54 38.0249V56.0249" stroke="#171616" stroke-width="2" stroke-linecap="round" stroke-linejoin="round"/>
</svg>
