<svg width="25" height="25" viewBox="0 0 25 25" fill="none" xmlns="http://www.w3.org/2000/svg">
<g clip-path="url(#clip0_135_5)">
<path d="M7.57043 6.02644C7.12904 5.85219 6.70092 5.71958 6.29935 5.51883C5.9177 5.35961 5.57601 5.09616 5.30411 4.75149C5.03221 4.40683 4.83839 3.99143 4.73955 3.54156C4.46078 2.23475 5.32365 0.0643051 7.0162 0.00369905C7.71948 0.00750382 8.40241 0.273533 8.96098 0.761275C9.94308 1.58857 10.8063 2.58538 11.5197 3.71584C11.5484 3.75647 11.5842 3.78989 11.6247 3.814C11.6653 3.83812 11.7097 3.85241 11.7553 3.85599C12.2509 3.85599 12.7454 3.85599 13.2388 3.85599C13.336 3.84478 13.4254 3.79034 13.4877 3.70446C14.0977 2.7517 14.8089 1.88903 15.6051 1.13627C15.971 0.796109 16.3736 0.510956 16.8031 0.28779C18.1539 -0.401604 19.4316 0.174154 20.0489 1.70824C20.623 3.1287 20.2613 4.53021 19.0532 5.29915C18.5951 5.54835 18.1214 5.75853 17.6361 5.92795C17.5646 5.94869 17.4963 5.98191 17.4337 6.02644H23.3444C23.5656 6.00488 23.7883 6.03841 23.9971 6.12474C24.2059 6.21107 24.3957 6.34815 24.5535 6.52646C24.7113 6.70477 24.8333 6.92003 24.911 7.15744C24.9888 7.39484 25.0204 7.64869 25.0037 7.90142C25.0037 8.49233 25.0037 9.08326 25.0037 9.67416C25.0245 10.0844 24.9162 10.4896 24.6984 10.8167C24.4805 11.1438 24.1675 11.3713 23.8156 11.4582C23.6596 11.5037 23.653 11.5984 23.653 11.731C23.653 15.4027 23.653 19.0719 23.653 22.7386C23.653 22.9886 23.653 23.2348 23.653 23.4961C23.6532 23.8902 23.5188 24.2688 23.2784 24.5517C23.038 24.8346 22.7105 24.9995 22.3653 25.0113H2.73503C2.4668 25.0312 2.19989 24.9541 1.97228 24.7909C1.74467 24.6276 1.56795 24.3867 1.46728 24.1022C1.39018 23.8991 1.35172 23.6796 1.35445 23.4583C1.35445 20.1881 1.35445 16.9191 1.35445 13.6514C1.35445 13.0302 1.35445 12.4052 1.35445 11.7802C1.35908 11.7416 1.35688 11.7023 1.34797 11.6646C1.33907 11.627 1.32364 11.5918 1.3026 11.561C1.28156 11.5303 1.25534 11.5047 1.22548 11.4858C1.19562 11.4668 1.16274 11.4549 1.12877 11.4507C0.805028 11.3605 0.517323 11.1485 0.312021 10.8489C0.106719 10.5493 -0.00422241 10.1795 -0.00291832 9.79915C-0.00291832 9.11354 -0.00291832 8.42792 -0.00291832 7.7461C-0.00032661 7.51862 0.0416132 7.294 0.120491 7.08507C0.199369 6.87614 0.313634 6.68702 0.456719 6.52864C0.599804 6.37025 0.768893 6.24569 0.954276 6.1621C1.13966 6.07851 1.33768 6.03755 1.53697 6.04156H7.56047L7.57043 6.02644ZM14.1316 23.6363H22.133C22.4649 23.6363 22.4649 23.6363 22.4649 23.2575L22.4848 11.8408C22.4848 11.5037 22.4848 11.5037 22.1928 11.5037H14.3738C14.3008 11.5037 14.2278 11.5037 14.1382 11.5037L14.1316 23.6363ZM2.54587 11.5151V23.2234C2.54587 23.6363 2.54587 23.6363 2.89765 23.6363H10.8626V11.5151H2.54587ZM10.8692 7.40523C10.783 7.40523 10.7232 7.40523 10.6668 7.40523H1.62658C1.29471 7.40523 1.20178 7.53021 1.20178 7.909C1.20178 8.48097 1.20178 9.04538 1.20178 9.62871C1.20178 10.053 1.29471 10.1628 1.66309 10.1628H10.6237C10.7 10.1628 10.7796 10.1628 10.8593 10.1628L10.8692 7.40523ZM14.1415 7.40523V10.1476C14.1924 10.1506 14.2433 10.1506 14.2942 10.1476H23.3908C23.6829 10.1476 23.7924 10.0151 23.7924 9.67416C23.7924 9.10977 23.7924 8.53777 23.7924 7.98095C23.7924 7.48474 23.7127 7.39006 23.2846 7.39006H14.1349L14.1415 7.40523ZM14.2411 4.77642L14.3008 4.8787C15.5951 4.90521 16.8861 4.90142 18.1207 4.35218C18.2042 4.31488 18.2852 4.27057 18.3629 4.21961C18.5714 4.11139 18.7509 3.94198 18.8833 3.72869C19.0156 3.5154 19.096 3.26585 19.1162 3.00552C19.1365 2.74518 19.0959 2.48339 18.9985 2.24683C18.9011 2.01027 18.7505 1.80743 18.5621 1.659C18.1008 1.23476 17.6229 1.3446 17.1483 1.60596C16.631 1.89924 16.1662 2.30003 15.7776 2.78778C15.2533 3.40899 14.7621 4.09463 14.2411 4.75751V4.77642ZM10.7365 4.87111C10.717 4.82283 10.6948 4.77602 10.6701 4.73096C10.1143 3.79118 9.44383 2.9468 8.67888 2.22339C8.32001 1.92018 7.93129 1.66592 7.52064 1.46581C7.34371 1.37639 7.14778 1.34776 6.95682 1.38342C6.76585 1.41907 6.58813 1.51748 6.44538 1.66658C6.25727 1.81571 6.1073 2.01925 6.01087 2.25636C5.91444 2.49347 5.875 2.75563 5.89662 3.01588C5.91824 3.27612 6.00013 3.52509 6.13389 3.73729C6.26765 3.9495 6.44846 4.11728 6.65778 4.2234C6.85335 4.35031 7.0633 4.44591 7.2817 4.50749C7.94545 4.64764 8.60919 4.78398 9.27294 4.85974C9.73756 4.89383 10.2254 4.8522 10.7365 4.8522V4.87111Z" fill="white"/>
</g>
<defs>
<clipPath id="clip0_135_5">
<rect width="25" height="25" fill="white"/>
</clipPath>
</defs>
</svg>
