<svg xmlns="http://www.w3.org/2000/svg" width="28.116" height="27.034" viewBox="0 0 28.116 27.034">
  <g id="Group_14" data-name="Group 14" transform="translate(-771 -379)">
    <g id="Layer_2" data-name="Layer 2" transform="translate(771 379)">
      <g id="Layer_1" data-name="Layer 1" transform="translate(0 0)">
        <path id="Path_15862" data-name="Path 15862" d="M28.116,13.517A13.8,13.8,0,0,1,14.058,27.034,13.8,13.8,0,0,1,0,13.517,13.8,13.8,0,0,1,14.058,0,13.8,13.8,0,0,1,28.116,13.517Zm-27.272,0A12.976,12.976,0,0,0,14.064,26.241,12.977,12.977,0,0,0,27.291,13.52,12.976,12.976,0,0,0,14.061.811,12.968,12.968,0,0,0,.843,13.52Z" transform="translate(0)" fill="#171616"/>
      </g>
    </g>
    <path id="Path_15872" data-name="Path 15872" d="M1.748-8.77a.112.112,0,0,0-.127.127V-.127A.112.112,0,0,0,1.748,0H3.135a.112.112,0,0,0,.127-.127V-8.643a.112.112,0,0,0-.127-.127Zm.693-1.611a.9.9,0,0,0,.664-.273.937.937,0,0,0,.273-.674.9.9,0,0,0-.273-.664.9.9,0,0,0-.664-.273.9.9,0,0,0-.664.273.889.889,0,0,0-.283.664.92.92,0,0,0,.283.674A.9.9,0,0,0,2.441-10.381Z" transform="translate(782.506 399.266)" fill="#171616"/>
  </g>
</svg>
