<svg id="Layer_1" data-name="Layer 1" xmlns="http://www.w3.org/2000/svg" width="28.406" height="29.993" viewBox="0 0 28.406 29.993">
  <path id="Path_15887" data-name="Path 15887" d="M-.006,19.6a3.488,3.488,0,0,1,1.5-3.01c.311-.22.665-.378.977-.6a1.149,1.149,0,0,0-.022-2.023c-.275-.183-.57-.325-.842-.5a3.408,3.408,0,0,1-1.2-4.527c.5-.963,1.053-1.913,1.635-2.836A3.408,3.408,0,0,1,6.62,4.869c.1.05.193.1.288.155,1.578.892,2.279.488,2.3-1.3A3.5,3.5,0,0,1,12.959,0h2.459a3.506,3.506,0,0,1,3.77,3.789,4.847,4.847,0,0,0,.025.736,1.119,1.119,0,0,0,1.531.878,11.091,11.091,0,0,0,1.015-.526A3.406,3.406,0,0,1,26.342,6.1c.579.923,1.13,1.868,1.632,2.836a3.4,3.4,0,0,1-1.247,4.575c-1.926,1.238-1.926,1.713.022,2.982a3.4,3.4,0,0,1,1.212,4.583c-.5.94-1.028,1.863-1.589,2.766a3.411,3.411,0,0,1-4.638,1.252c-.169-.088-.332-.189-.5-.275-1.208-.676-2.028-.209-2.047,1.164-.039,2.7-1.355,4.008-4.042,4.009-.793,0-1.585.011-2.376,0a3.476,3.476,0,0,1-3.564-3.577c0-.245.01-.493,0-.737a1.157,1.157,0,0,0-1.743-1.014,10.634,10.634,0,0,1-1.789.782,2.927,2.927,0,0,1-3.231-1.064A34.085,34.085,0,0,1,.188,20.5,2.971,2.971,0,0,1-.006,19.6Zm26.32-8.943c-.493-.868-.909-1.563-1.286-2.277-.863-1.637-1.222-2.1-3.134-1.006a3.378,3.378,0,0,1-5-3.027c0-.275.008-.55,0-.819A1.14,1.14,0,0,0,15.73,2.312c-1.009-.044-2.023-.036-3.027,0a1.153,1.153,0,0,0-1.19,1.271c-.01.275,0,.55-.008.826a3.416,3.416,0,0,1-4.15,3.283,6.109,6.109,0,0,1-1.563-.673c-.929-.48-1.424-.359-1.963.55C3.48,8.156,3.147,8.751,2.8,9.34c-.826,1.408-.735,1.752.688,2.589a3.379,3.379,0,0,1,1.82,3.236A3.536,3.536,0,0,1,3.2,18.232c-1.009.55-1.143,1.1-.589,2.072.429.76.854,1.523,1.313,2.265a1.141,1.141,0,0,0,1.736.469c.267-.138.517-.305.786-.44a3.44,3.44,0,0,1,5.044,2.845c.026.326,0,.655.018.982a1.152,1.152,0,0,0,1.205,1.259c.982.03,1.968.029,2.95,0A1.176,1.176,0,0,0,16.9,26.446c.015-.326-.01-.655.008-.982a3.351,3.351,0,0,1,3.61-3.218,5.9,5.9,0,0,1,1.981.676c1.073.534,1.513.44,2.133-.614.316-.542.629-1.086.944-1.628.848-1.458.765-1.765-.71-2.644a3.418,3.418,0,0,1-1.72-3.821,3.711,3.711,0,0,1,2.009-2.446,7.178,7.178,0,0,0,1.16-1.116Z" transform="translate(0.007)" fill="white"/>
  <path id="Path_15888" data-name="Path 15888" d="M76.938,77.7a4.989,4.989,0,1,1-5.019-4.982A4.989,4.989,0,0,1,76.938,77.7Zm-5.019-2.69a2.686,2.686,0,1,0,1.921.764A2.7,2.7,0,0,0,71.919,75.012Z" transform="translate(-57.746 -62.714)" fill="white"/>
</svg>
