<svg id="Layer_2" data-name="Layer 2" xmlns="http://www.w3.org/2000/svg" width="19.762" height="21.566" viewBox="0 0 19.762 21.566">
  <g id="Layer_1" data-name="Layer 1" transform="translate(0)">
    <path id="Path_15864" data-name="Path 15864" d="M12.834,3v.61a8.9,8.9,0,0,1,6.212,9.905A9.187,9.187,0,0,1,9.88,21.006,9.187,9.187,0,0,1,.714,13.515,8.9,8.9,0,0,1,6.926,3.61V3A9.487,9.487,0,0,0,.114,13.5,9.769,9.769,0,0,0,9.88,21.566,9.769,9.769,0,0,0,19.646,13.5,9.487,9.487,0,0,0,12.834,3Z" transform="translate(0.001)" fill="#fb8809"/>
    <line id="Line_6" data-name="Line 6" y2="6" transform="translate(9.881)" stroke="#fb8809" stroke-miterlimit="10" stroke-width="0.7"/>
  </g>
</svg>
