<svg xmlns="http://www.w3.org/2000/svg" viewBox="0 0 16 14.58"><defs><style>.cls-1{fill:#fb8809;}</style></defs><g id="Layer_2" data-name="Layer 2"><g id="Layer_1-2" data-name="Layer 1"><path class="cls-1" d="M11.39,7A7.87,7.87,0,0,1,13,8a8.39,8.39,0,0,1,2.65,3.42,4.73,4.73,0,0,1,.38,2c0,.08,0,.13-.1.17a8.3,8.3,0,0,1-3.51.68c-.4,0-.8-.09-1.2-.14l-.07,0c.31-.21.61-.4.89-.63a.78.78,0,0,1,.57-.18,6.93,6.93,0,0,0,2.34-.39l.07,0a4.05,4.05,0,0,0-.36-1.23,7.55,7.55,0,0,0-3.28-3.49c-.12-.07-.18-.12-.13-.27a1.7,1.7,0,0,0,.09-.39C11.34,7.3,11.36,7.17,11.39,7Z"/><path class="cls-1" d="M5.08,12.76l-.89.18a.58.58,0,0,1-.62-.2A6,6,0,0,1,1.82,9.23a6.14,6.14,0,0,1,2.59-6c.23-.17.48-.31.72-.46l0,0c-.09.25-.19.5-.27.76a3.38,3.38,0,0,1-.2.66,3.11,3.11,0,0,1-.48.48A5.24,5.24,0,0,0,5,12.63l.11.09Z"/><path class="cls-1" d="M1.58,9.41c.1.37.21.73.3,1.1a.31.31,0,0,1,0,.19,5.51,5.51,0,0,0-.79,1.85c-.07.33-.11.25.2.35A6.28,6.28,0,0,0,7,12.08c.06,0,.1-.06.16,0l.33.31.34.31-.28.2a7.27,7.27,0,0,1-4.39,1.31,8.14,8.14,0,0,1-2.88-.63c-.25-.1-.25-.1-.25-.37a5.09,5.09,0,0,1,.75-2.58c.22-.4.5-.76.75-1.14Z"/><path class="cls-1" d="M6.57,3.26a4.84,4.84,0,0,1,.72-1.08.2.2,0,0,1,.15-.06,6,6,0,0,1,3.05.49,6.1,6.1,0,0,1,3.64,4.61,10.54,10.54,0,0,1,.11,1.37,1.54,1.54,0,0,1,0,.19,6.58,6.58,0,0,0-.62-.58,1,1,0,0,1-.42-.74,5,5,0,0,0-1.83-3.17A5.16,5.16,0,0,0,6.74,3.22Z"/><path class="cls-1" d="M4.79,6.65c0-.39,0-.76,0-1.12A6.68,6.68,0,0,1,7.93,0a.15.15,0,0,1,.13,0,6.82,6.82,0,0,1,2.15,2.16l0,.07a3.68,3.68,0,0,0-.37-.11l-1-.23a.44.44,0,0,1-.18-.09L8,1.15l-.28.23a5.71,5.71,0,0,0-2,4.69c0,.25,0,.24-.22.32Z"/><path class="cls-1" d="M13.09,9.7c.24.31.47.59.68.87,0,0,0,.11,0,.15a6.15,6.15,0,0,1-3.84,3.55,6.14,6.14,0,0,1-4.1-.08l-.14-.06,0,0,.11,0,1.13-.49a.44.44,0,0,1,.22-.05,5.27,5.27,0,0,0,5.94-3.71S13.06,9.77,13.09,9.7Z"/><path class="cls-1" d="M8.9,11.69c-.14-.11-.27-.21-.39-.32s-.23-.21-.33-.31A7.57,7.57,0,0,0,9.91,3.71l.09,0c.33.19.66.37,1,.57a.32.32,0,0,1,.12.21,8.32,8.32,0,0,1-1.2,5.85A7.84,7.84,0,0,1,8.9,11.69Z"/><path class="cls-1" d="M3,9.21c0-.38,0-.76,0-1.14A.18.18,0,0,1,3.07,8,8,8,0,0,1,6.83,6.34a7.81,7.81,0,0,1,3,.12l.18,0-.16,1A7.15,7.15,0,0,0,3.08,9.21Z"/><path class="cls-1" d="M5.11,8.11,6,7.76a7.74,7.74,0,0,0,4.28,5l-.08.05-1.06.38a.32.32,0,0,1-.23-.05,8.53,8.53,0,0,1-2.77-2.74,8.38,8.38,0,0,1-1-2.19A1.23,1.23,0,0,1,5.11,8.11Z"/></g></g></svg>